<svg xmlns="http://www.w3.org/2000/svg" width="1200" height="630" viewBox="0 0 1200 630">
  <defs>
    <linearGradient id="bgGrad" x1="0" y1="0" x2="1" y2="1">
      <stop offset="0%" stop-color="#0f172a"/>
      <stop offset="100%" stop-color="#1e293b"/>
    </linearGradient>
    <linearGradient id="barGrad" x1="0" y1="0" x2="0" y2="1">
      <stop offset="0%" stop-color="#3b82f6"/>
      <stop offset="100%" stop-color="#2563eb"/>
    </linearGradient>
    <linearGradient id="accentGrad" x1="0" y1="0" x2="0" y2="1">
      <stop offset="0%" stop-color="#10b981"/>
      <stop offset="100%" stop-color="#059669"/>
    </linearGradient>
  </defs>
  <rect width="1200" height="630" fill="url(#bgGrad)"/>
  <line x1="0" y1="530" x2="1200" y2="530" stroke="#1e293b" stroke-width="1"/>
  <line x1="0" y1="480" x2="1200" y2="480" stroke="#1e293b" stroke-width="0.5" opacity="0.5"/>
  <line x1="0" y1="430" x2="1200" y2="430" stroke="#1e293b" stroke-width="0.5" opacity="0.5"/>
  <rect x="80" y="420" width="36" height="110" rx="6" fill="url(#barGrad)" opacity="0.8"/>
  <rect x="130" y="360" width="36" height="170" rx="6" fill="url(#barGrad)" opacity="0.9"/>
  <rect x="180" y="330" width="36" height="200" rx="6" fill="url(#barGrad)"/>
  <rect x="230" y="380" width="36" height="150" rx="6" fill="url(#accentGrad)"/>
  <path d="M240 440 L248 452 L264 430" stroke="white" stroke-width="4" fill="none" stroke-linecap="round" stroke-linejoin="round"/>
  <path d="M96 460 L148 390 L198 350 L248 400" stroke="#f59e0b" stroke-width="3" fill="none" stroke-linecap="round" stroke-linejoin="round"/>
  <circle cx="248" cy="400" r="6" fill="#f59e0b"/>
  <circle cx="248" cy="400" r="10" fill="#f59e0b" opacity="0.3"/>
  <text x="600" y="200" text-anchor="middle" font-family="system-ui, -apple-system, sans-serif" font-size="80" font-weight="bold" fill="#f1f5f9">Test Audit</text>
  <text x="600" y="270" text-anchor="middle" font-family="system-ui, -apple-system, sans-serif" font-size="30" fill="#94a3b8">AI writes code fast. But it doesn't write tests.</text>
  <rect x="350" y="320" width="150" height="46" rx="23" fill="#1e293b" stroke="#334155" stroke-width="1"/>
  <text x="425" y="350" text-anchor="middle" font-family="monospace" font-size="18" fill="#60a5fa">/test-audit</text>
  <rect x="520" y="320" width="160" height="46" rx="23" fill="#064e3b" stroke="#065f46" stroke-width="1"/>
  <text x="600" y="350" text-anchor="middle" font-family="system-ui" font-size="17" fill="#34d399">Zero interaction</text>
  <rect x="700" y="320" width="150" height="46" rx="23" fill="#451a03" stroke="#78350f" stroke-width="1"/>
  <text x="775" y="350" text-anchor="middle" font-family="system-ui" font-size="17" fill="#fbbf24">Finds bugs</text>
  <text x="600" y="580" text-anchor="middle" font-family="system-ui, -apple-system, sans-serif" font-size="18" fill="#475569">Claude Code Skill — Works with any AI coding agent</text>
</svg>
